<?xml version="1.0" encoding="UTF-8"?>
<svg id="Calque_2" data-name="Calque 2" xmlns="http://www.w3.org/2000/svg" viewBox="0 0 467 95">
  <defs>
    <style>
      .cls-1 {
        fill: none;
        stroke: #f9f9f9;
        stroke-miterlimit: 10;
        stroke-width: 4px;
      }

      .cls-2 {
        fill: #f9f9f9;
        stroke-width: 0px;
      }
    </style>
  </defs>
  <g id="Layer_1" data-name="Layer 1">
    <rect class="cls-1" x="2" y="2" width="463" height="91"/>
    <g>
      <path class="cls-2" d="m92.28,46.65c0,2.5-.37,4.75-1.12,6.75-.75,2-1.8,3.7-3.16,5.1-1.36,1.4-2.98,2.48-4.87,3.23-1.89.75-3.99,1.12-6.29,1.12h-11.8V30.48h11.8c2.3,0,4.4.37,6.29,1.12,1.89.75,3.52,1.82,4.87,3.23,1.36,1.4,2.41,3.1,3.16,5.1.75,2,1.12,4.24,1.12,6.73Zm-2.42,0c0-2.26-.31-4.27-.94-6.04-.63-1.77-1.51-3.26-2.64-4.48s-2.5-2.15-4.11-2.79c-1.6-.64-3.38-.96-5.33-.96h-9.45v28.57h9.45c1.95,0,3.73-.32,5.33-.96,1.6-.64,2.97-1.57,4.11-2.79s2.02-2.71,2.64-4.48c.62-1.77.94-3.79.94-6.06Z"/>
      <path class="cls-2" d="m119.2,30.48v1.94h-17.04v13.08h14.18v1.9h-14.18v13.5h17.04v1.94h-19.4V30.48h19.4Z"/>
      <path class="cls-2" d="m142.51,34.42c-.14.26-.33.39-.59.39-.2,0-.46-.14-.77-.42s-.74-.59-1.27-.94c-.54-.34-1.21-.66-2.01-.95-.8-.29-1.79-.43-2.97-.43s-2.21.17-3.11.5c-.89.34-1.64.79-2.25,1.37-.6.58-1.06,1.25-1.38,2.01s-.47,1.56-.47,2.4c0,1.1.23,2.01.7,2.72s1.08,1.33,1.84,1.83c.76.5,1.63.93,2.6,1.27.97.34,1.97.68,2.99,1.02,1.02.34,2.02.71,2.99,1.11.97.4,1.84.91,2.6,1.52s1.38,1.36,1.84,2.25c.47.89.7,2,.7,3.33s-.23,2.63-.7,3.83c-.47,1.2-1.14,2.24-2.02,3.12-.88.88-1.97,1.58-3.25,2.09-1.28.51-2.75.77-4.39.77-2.13,0-3.97-.38-5.51-1.13-1.54-.75-2.89-1.79-4.05-3.1l.64-1.01c.18-.23.4-.34.64-.34.14,0,.31.09.53.27s.47.41.78.67c.3.27.67.56,1.1.87.43.31.92.6,1.49.87.56.27,1.21.49,1.95.67.73.18,1.57.27,2.5.27,1.28,0,2.43-.19,3.44-.58,1.01-.39,1.86-.92,2.55-1.59.69-.67,1.22-1.47,1.59-2.39.37-.92.55-1.91.55-2.96,0-1.14-.23-2.09-.7-2.83s-1.08-1.36-1.84-1.85c-.76-.5-1.63-.91-2.6-1.25-.97-.34-1.97-.66-2.99-.98-1.02-.32-2.02-.68-2.99-1.07s-1.84-.9-2.6-1.52-1.38-1.39-1.84-2.31-.7-2.08-.7-3.47c0-1.08.21-2.13.62-3.13.41-1.01,1.01-1.89,1.81-2.67.79-.77,1.78-1.39,2.94-1.85,1.17-.46,2.5-.7,4-.7,1.68,0,3.19.27,4.52.8,1.34.53,2.55,1.35,3.65,2.45l-.55,1.05Z"/>
      <path class="cls-2" d="m153.95,62.85h-2.36V30.48h2.36v32.37Z"/>
      <path class="cls-2" d="m178.33,61.32c1.11,0,2.13-.06,3.04-.17s1.77-.29,2.55-.51c.79-.23,1.53-.51,2.24-.83.71-.33,1.42-.7,2.14-1.11v-8.72h-6.22c-.17,0-.31-.05-.42-.16-.11-.11-.17-.23-.17-.37v-1.28h8.94v11.51c-.81.56-1.65,1.07-2.52,1.51-.87.44-1.8.81-2.79,1.11-.99.3-2.06.53-3.2.69-1.14.16-2.39.24-3.75.24-2.33,0-4.46-.39-6.39-1.18-1.93-.79-3.58-1.9-4.96-3.34-1.38-1.44-2.45-3.18-3.21-5.23-.76-2.04-1.14-4.32-1.14-6.82s.38-4.77,1.14-6.81c.76-2.04,1.84-3.77,3.25-5.22s3.11-2.55,5.11-3.34c2.01-.79,4.25-1.18,6.74-1.18,1.24,0,2.38.08,3.42.25,1.04.17,2.02.42,2.92.74.9.33,1.74.73,2.52,1.21.78.48,1.52,1.03,2.24,1.66l-.62,1.01c-.14.23-.33.34-.57.34-.14,0-.27-.03-.39-.09-.23-.09-.56-.3-1-.64s-1.02-.69-1.76-1.05c-.74-.37-1.67-.69-2.78-.98-1.11-.29-2.46-.43-4.05-.43-2.1,0-4,.34-5.7,1.01-1.69.67-3.14,1.63-4.33,2.88-1.2,1.25-2.12,2.78-2.77,4.58-.65,1.8-.97,3.82-.97,6.06s.33,4.34.98,6.15c.66,1.81,1.58,3.35,2.76,4.61,1.18,1.26,2.6,2.22,4.25,2.89,1.65.67,3.48,1.01,5.48,1.01Z"/>
      <path class="cls-2" d="m200.31,30.56c.12.05.25.17.39.35l20.95,28.04c-.05-.46-.07-.9-.07-1.33v-27.15h2.06v32.37h-1.12c-.35,0-.63-.15-.85-.46l-21.04-28.09c.04.46.07.89.07,1.3v27.24h-2.04V30.48h1.14c.21,0,.38.03.5.08Z"/>
      <path class="cls-2" d="m252.38,29.7c1.2,0,2.3.19,3.29.58.99.39,1.85.9,2.57,1.54s1.3,1.38,1.72,2.23c.42.85.66,1.73.72,2.64l-2.54.5c-.08.02-.15.02-.21.02-.2,0-.39-.05-.56-.16-.18-.11-.3-.3-.38-.57-.11-.4-.28-.81-.51-1.24-.24-.43-.54-.82-.92-1.17-.37-.35-.82-.64-1.35-.87-.53-.23-1.14-.34-1.84-.34-.76,0-1.45.12-2.06.37-.61.24-1.13.58-1.57,1.02-.43.44-.77.95-1.01,1.53-.24.59-.35,1.22-.35,1.91,0,.53.07,1.04.2,1.53.13.49.32.98.58,1.48.26.5.59,1.01,1.01,1.53.41.53.91,1.08,1.49,1.66l9.42,9.58c.58-1.02,1.04-2.09,1.38-3.21s.58-2.25.7-3.37c.03-.29.12-.52.27-.69s.37-.25.64-.25h2.52c-.03,1.75-.31,3.48-.85,5.17s-1.3,3.28-2.31,4.76l6.86,6.95h-3.93c-.44,0-.8-.05-1.08-.16-.27-.11-.58-.33-.92-.66l-3.29-3.32c-1.43,1.39-3.08,2.49-4.95,3.29s-3.92,1.21-6.16,1.21c-1.22,0-2.42-.21-3.59-.62-1.17-.41-2.22-1.01-3.15-1.8-.92-.79-1.67-1.74-2.23-2.87-.56-1.13-.85-2.4-.85-3.82,0-1.07.18-2.08.54-3.03s.85-1.83,1.49-2.64c.63-.81,1.38-1.53,2.25-2.17s1.82-1.19,2.86-1.65c-.93-1.17-1.62-2.32-2.06-3.43-.44-1.11-.66-2.26-.66-3.45,0-1.11.2-2.16.61-3.13s.99-1.83,1.75-2.55c.76-.72,1.69-1.3,2.78-1.72,1.09-.42,2.31-.63,3.67-.63Zm-9.08,24.09c0,.99.18,1.86.55,2.62.37.75.85,1.39,1.44,1.91.59.52,1.27.91,2.04,1.18.76.27,1.54.4,2.33.4,1.71,0,3.24-.31,4.6-.94,1.36-.62,2.55-1.46,3.59-2.49l-9.68-9.77c-1.62.87-2.83,1.91-3.65,3.12-.82,1.21-1.22,2.54-1.22,3.97Z"/>
      <path class="cls-2" d="m304.35,55.05c.34,0,.62.13.87.39l2.42,2.63c-1.34,1.66-2.99,2.94-4.95,3.82-1.96.88-4.31,1.33-7.06,1.33-2.46,0-4.66-.42-6.62-1.26-1.96-.84-3.63-2.01-5.02-3.5-1.39-1.49-2.45-3.28-3.19-5.35-.74-2.07-1.11-4.34-1.11-6.79s.41-4.76,1.24-6.83,1.98-3.85,3.48-5.34c1.49-1.49,3.28-2.66,5.36-3.49,2.08-.83,4.38-1.25,6.9-1.25s4.6.39,6.44,1.18c1.84.79,3.41,1.83,4.72,3.12l-2.06,2.86c-.12.18-.28.34-.47.48-.19.14-.45.21-.79.21s-.71-.14-1.08-.41c-.37-.27-.83-.57-1.39-.89-.56-.32-1.28-.62-2.14-.89s-1.96-.41-3.28-.41c-1.56,0-2.99.27-4.29.81s-2.42,1.31-3.36,2.32c-.94,1.01-1.67,2.23-2.2,3.67-.53,1.44-.79,3.06-.79,4.86s.26,3.52.79,4.96,1.24,2.67,2.14,3.66,1.96,1.75,3.18,2.28c1.22.53,2.53.79,3.93.79.84,0,1.6-.05,2.28-.14.68-.09,1.3-.24,1.88-.43.57-.2,1.11-.45,1.62-.77.51-.31,1.02-.7,1.52-1.16.15-.14.31-.25.48-.33s.35-.13.55-.13Z"/>
      <path class="cls-2" d="m344.01,46.31c0,2.42-.4,4.67-1.21,6.74-.81,2.07-1.95,3.85-3.41,5.36-1.46,1.51-3.22,2.69-5.28,3.53-2.06.85-4.34,1.27-6.84,1.27s-4.79-.42-6.85-1.27c-2.07-.85-3.83-2.02-5.31-3.53-1.47-1.51-2.61-3.3-3.42-5.36-.81-2.07-1.21-4.31-1.21-6.74s.4-4.67,1.21-6.74c.81-2.07,1.95-3.85,3.42-5.36s3.24-2.69,5.31-3.53c2.07-.85,4.35-1.27,6.85-1.27s4.78.43,6.84,1.28c2.06.85,3.82,2.03,5.28,3.53s2.6,3.29,3.41,5.35c.81,2.07,1.21,4.31,1.21,6.74Zm-6.31,0c0-1.81-.24-3.44-.72-4.88-.48-1.44-1.17-2.67-2.07-3.67-.9-1.01-1.99-1.78-3.28-2.31-1.29-.53-2.74-.8-4.36-.8s-3.07.27-4.37.8c-1.3.53-2.4,1.3-3.31,2.31-.91,1.01-1.61,2.23-2.09,3.67-.49,1.44-.73,3.07-.73,4.88s.24,3.44.73,4.88c.49,1.44,1.19,2.66,2.09,3.66s2.01,1.77,3.31,2.3c1.3.53,2.75.8,4.37.8s3.07-.27,4.36-.8c1.29-.53,2.38-1.3,3.28-2.3s1.59-2.22,2.07-3.66.72-3.07.72-4.88Z"/>
      <path class="cls-2" d="m378.23,46.31c0,2.42-.4,4.65-1.21,6.68-.81,2.03-1.94,3.77-3.41,5.24-1.46,1.46-3.23,2.6-5.28,3.41-2.06.81-4.34,1.21-6.84,1.21h-12.63V29.77h12.63c2.5,0,4.78.41,6.84,1.22,2.06.82,3.82,1.95,5.28,3.41,1.46,1.46,2.6,3.2,3.41,5.23.81,2.03,1.21,4.25,1.21,6.68Zm-6.29,0c0-1.81-.24-3.44-.73-4.88-.49-1.44-1.18-2.66-2.08-3.66-.9-1-1.99-1.76-3.28-2.3-1.29-.53-2.74-.8-4.36-.8h-6.43v23.29h6.43c1.62,0,3.07-.27,4.36-.8s2.38-1.3,3.28-2.3c.9-1,1.59-2.22,2.08-3.66s.73-3.07.73-4.88Z"/>
      <path class="cls-2" d="m403.92,29.77v4.9h-14.66v9.17h11.55v4.74h-11.55v9.36h14.66v4.92h-20.86V29.77h20.86Z"/>
    </g>
  </g>
</svg>